<?xml version="1.0" standalone="no"?>
<!DOCTYPE svg PUBLIC "-//W3C//DTD SVG 20010904//EN"
 "http://www.w3.org/TR/2001/REC-SVG-20010904/DTD/svg10.dtd">
<svg version="1.0" xmlns="http://www.w3.org/2000/svg"
 width="900.000000pt" height="1107.000000pt" viewBox="0 0 900.000000 1107.000000"
 preserveAspectRatio="xMidYMid meet">
<metadata>
Created by potrace 1.10, written by Peter Selinger 2001-2011
</metadata>
<g transform="translate(0.000000,1107.000000) scale(0.100000,-0.100000)"
fill="#000000" stroke="none">
<path d="M2127 11010 c-383 -7 -543 -13 -553 -21 -22 -18 -17 -38 12 -45 26
-7 187 0 282 12 45 6 63 3 110 -19 67 -29 181 -44 447 -58 99 -5 196 -13 215
-19 19 -5 53 -10 75 -10 23 0 78 -13 123 -29 45 -15 83 -26 83 -22 1 3 2 22 3
40 1 34 3 36 61 54 50 16 93 20 265 21 158 1 213 -2 239 -13 33 -14 35 -14 55
12 26 33 42 34 74 5 21 -21 37 -23 159 -28 128 -6 136 -7 153 -31 11 -13 20
-40 22 -59 3 -30 7 -35 28 -35 19 0 26 6 28 23 5 34 58 62 115 62 26 0 64 7
84 15 45 19 100 19 137 0 41 -22 56 -19 56 10 0 14 7 28 16 32 9 3 92 0 185
-7 178 -14 284 -5 335 26 25 15 51 10 118 -22 40 -19 66 -24 131 -24 83 0 280
31 314 50 50 26 80 1 41 -35 -35 -32 -25 -42 48 -48 37 -3 92 -13 122 -23 87
-27 129 -28 190 -5 65 25 90 26 90 6 0 -14 29 -35 50 -35 6 0 24 14 40 31 27
30 31 31 117 33 55 2 105 9 134 20 58 22 118 9 148 -32 38 -50 43 -53 69 -50
19 2 32 13 44 37 24 49 32 55 57 39 18 -11 23 -11 31 2 5 8 10 23 10 32 0 28
17 29 47 4 15 -13 46 -29 68 -37 22 -7 52 -24 66 -36 24 -22 31 -23 108 -17
45 4 84 11 87 15 3 5 -2 19 -10 31 -9 12 -16 26 -16 29 0 4 33 5 73 2 51 -4
88 -1 127 11 54 16 54 16 75 -8 47 -56 121 -63 180 -16 34 27 45 30 106 30 75
0 80 -3 122 -70 16 -24 31 -36 51 -38 30 -4 81 13 106 34 31 26 134 71 152 66
10 -2 25 -19 33 -38 16 -39 43 -49 195 -68 117 -15 174 -38 198 -79 16 -26 16
-30 -12 -82 -28 -54 -29 -85 -3 -85 27 0 94 -58 101 -87 15 -59 32 -85 69
-104 41 -21 46 -35 20 -55 -17 -12 -17 -14 -2 -29 13 -14 21 -15 38 -6 20 11
21 19 21 169 -1 122 -4 161 -15 176 -8 11 -15 40 -15 65 0 51 -6 63 -36 79
-12 6 -24 26 -28 43 -17 88 -114 145 -291 170 -33 5 -96 14 -140 21 -54 8
-256 12 -615 12 -500 1 -537 -1 -569 -18 -30 -16 -43 -17 -126 -7 -161 19
-976 29 -2875 35 -723 2 -1557 0 -1853 -4z"/>
<path d="M1060 10977 c-20 -10 -25 -20 -25 -52 0 -33 -3 -40 -20 -40 -11 -1
-32 -8 -45 -18 -13 -9 -33 -17 -44 -17 -11 0 -28 -8 -38 -17 -24 -22 -52 -7
-56 30 -4 30 13 41 72 50 39 6 56 20 56 46 0 11 -16 12 -82 8 -105 -8 -199
-29 -263 -61 -27 -13 -75 -31 -105 -39 -30 -9 -80 -23 -111 -31 -31 -9 -78
-16 -105 -16 -27 0 -62 -7 -78 -15 -15 -8 -33 -15 -38 -15 -13 0 -116 -80
-152 -119 l-29 -30 7 -653 c3 -359 11 -1617 15 -2795 5 -1178 11 -2146 14
-2150 9 -15 18 -738 22 -1718 4 -1068 19 -1937 36 -2110 8 -80 8 -110 0 -113
-16 -5 -13 -153 4 -232 8 -36 14 -79 15 -97 0 -18 6 -52 14 -75 8 -24 17 -55
20 -70 3 -15 31 -54 61 -86 30 -33 55 -69 55 -80 0 -30 -37 -52 -87 -52 -46 0
-73 -19 -73 -52 0 -55 168 -154 340 -202 218 -60 483 -92 895 -107 301 -12
1229 -4 1495 12 85 5 227 11 315 14 88 3 270 12 405 20 429 26 620 36 825 45
110 5 250 13 310 19 61 6 155 11 210 11 55 0 177 7 270 15 94 8 215 15 270 15
55 0 177 7 270 15 94 8 215 15 270 15 55 0 177 7 270 15 94 8 215 15 270 15
55 0 177 7 270 15 94 8 206 15 250 15 44 0 168 6 275 14 253 20 475 36 625 46
218 15 379 42 452 77 32 15 50 50 34 66 -10 10 -238 5 -486 -12 -278 -18
-1017 -54 -1460 -71 -110 -4 -272 -13 -360 -19 -322 -23 -673 -41 -790 -41
-66 0 -219 -7 -340 -15 -121 -8 -265 -15 -320 -15 -55 0 -147 -7 -205 -15 -58
-8 -136 -15 -175 -15 -38 0 -155 -7 -260 -14 -233 -18 -519 -36 -725 -46 -280
-13 -533 -30 -675 -45 -77 -9 -167 -15 -200 -15 -33 0 -100 -5 -150 -11 -101
-11 -256 -24 -485 -39 -216 -14 -482 11 -705 66 -334 84 -601 219 -792 402
-45 43 -87 90 -92 105 -14 36 -4 90 31 174 38 90 33 116 -13 70 -38 -38 -45
-28 -30 43 7 34 7 58 0 76 -10 28 0 43 29 44 17 0 15 35 -3 50 -23 19 -18 38
12 42 34 4 42 32 17 59 -25 28 -20 70 17 125 30 43 33 56 34 120 0 55 -4 76
-18 91 -12 14 -17 36 -17 79 0 70 23 123 63 142 37 18 38 64 2 88 -14 9 -25
26 -25 38 0 19 19 88 35 128 5 14 2 18 -14 18 -12 0 -24 6 -27 14 -3 8 -6 81
-7 162 -1 82 -6 157 -11 167 -7 14 -3 17 27 17 20 0 39 5 42 11 11 17 -4 59
-20 59 -21 0 -55 59 -55 95 0 36 24 108 37 112 5 2 17 -30 27 -70 14 -60 25
-83 62 -124 24 -29 61 -62 82 -74 20 -12 39 -24 42 -27 3 -2 7 -31 10 -65 5
-61 6 -62 36 -65 25 -3 37 4 63 35 53 64 64 73 91 79 77 15 126 69 135 148 2
17 9 69 16 116 22 166 -25 238 -206 307 -50 19 -89 27 -138 27 l-69 1 -50 -54
c-27 -30 -54 -66 -60 -80 l-10 -26 -19 38 c-20 39 -18 51 23 108 15 22 4 47
-26 59 -34 13 -50 68 -41 144 7 63 8 86 3 121 -3 18 2 20 48 17 41 -3 53 0 58
13 9 24 -1 35 -49 56 -68 30 -81 83 -44 179 39 102 45 146 26 198 -16 47 -16
47 9 84 30 42 28 72 -4 76 -42 6 -69 127 -43 194 5 14 11 37 13 54 3 28 1 29
-42 34 -40 4 -45 8 -48 31 -2 16 7 42 22 64 49 72 59 155 26 220 -40 78 -14
219 42 227 19 2 24 10 26 41 3 32 0 38 -22 47 -32 12 -33 42 -6 120 24 69 24
73 1 65 -11 -3 -23 -1 -26 6 -4 6 -7 78 -6 159 1 95 -2 151 -8 155 -6 3 -11
12 -11 20 0 10 16 15 57 17 53 3 58 5 58 27 0 18 -9 27 -44 41 -72 28 -87 82
-50 180 53 141 51 126 28 192 l-20 61 26 27 c33 34 31 73 -3 78 -51 8 -65 112
-32 239 12 42 18 88 15 103 -5 22 -1 30 20 44 28 19 32 43 10 72 -8 10 -15 32
-15 47 0 46 -31 171 -46 188 -16 18 -18 51 -5 64 21 22 42 107 58 238 19 151
11 271 -23 371 -18 52 -17 55 22 192 17 61 17 61 -5 92 -12 18 -25 46 -27 64
-8 49 30 203 60 247 14 20 26 41 26 46 0 4 -13 29 -29 54 -61 95 -79 324 -33
402 l22 35 -24 32 c-39 53 -51 113 -38 190 25 148 25 167 3 210 -12 23 -21 53
-21 68 0 50 30 130 60 159 37 36 41 87 8 122 l-21 23 21 23 c28 30 30 97 4
120 -32 29 -42 21 -42 -33 0 -56 -19 -68 -38 -25 -12 26 -2 69 27 114 13 20
15 52 13 165 -1 77 -7 167 -13 200 -26 138 -14 225 43 315 l21 34 -26 19 c-47
34 -38 70 39 150 51 53 65 73 61 90 -10 38 49 128 84 128 14 0 16 -8 12 -64
-5 -57 -3 -65 14 -75 16 -8 27 -5 54 15 20 15 44 24 59 22 22 -3 25 -8 27 -42
1 -29 8 -44 30 -62 15 -13 33 -24 38 -24 20 -1 56 -40 53 -57 -2 -9 -17 -20
-36 -25 -17 -5 -32 -12 -32 -17 0 -13 42 -54 93 -88 26 -18 47 -38 47 -44 0
-7 -20 -31 -45 -53 -61 -56 -59 -84 8 -100 33 -8 56 -49 41 -73 -10 -16 -56
-36 -106 -47 -19 -4 -28 -13 -28 -26 0 -21 11 -30 55 -45 24 -8 32 -18 40 -52
6 -23 13 -45 18 -49 14 -14 7 -54 -13 -66 -11 -7 -20 -20 -20 -30 0 -9 -11
-30 -25 -46 -34 -41 -32 -52 13 -52 50 0 62 -14 62 -75 0 -69 -19 -95 -71 -95
-28 0 -39 -4 -39 -15 0 -9 7 -18 15 -21 8 -3 31 -27 52 -52 36 -44 38 -51 44
-135 7 -101 24 -131 59 -109 18 11 20 10 20 -13 0 -31 -78 -115 -108 -115 -11
0 -24 -4 -27 -10 -3 -5 15 -49 40 -97 34 -67 45 -98 45 -134 0 -33 5 -51 20
-64 25 -23 25 -43 0 -75 -25 -31 -25 -79 -1 -149 18 -52 18 -55 0 -95 -23 -52
-25 -151 -3 -206 l17 -41 51 3 c49 3 52 5 62 38 12 34 13 35 62 32 39 -3 51 0
56 14 4 9 0 24 -9 34 -8 9 -15 32 -15 52 0 35 -49 118 -70 118 -5 0 -16 13
-24 29 -13 23 -13 31 -2 47 8 10 15 28 17 39 3 15 14 21 44 25 30 4 41 10 43
25 2 15 -9 26 -44 45 -71 38 -73 47 -35 125 37 75 38 109 7 295 -20 121 -21
111 13 154 34 43 31 71 -5 62 -20 -5 -27 0 -44 33 -31 61 -27 88 15 105 36 15
44 33 24 53 -8 8 -7 20 5 44 22 44 21 48 -20 65 l-36 15 47 50 c47 50 47 51
41 102 -4 27 -13 65 -20 82 -28 66 -29 112 -6 157 18 35 21 52 15 92 -3 28
-10 55 -14 61 -5 5 -11 29 -15 52 -3 23 -8 48 -12 56 -3 8 6 28 20 45 22 25
26 40 26 90 0 42 7 76 25 116 30 69 31 86 4 156 -36 91 -36 115 -1 150 57 57
76 38 86 -86 3 -45 13 -105 22 -135 16 -52 16 -54 -5 -67 -26 -18 -26 -28 0
-76 22 -41 59 -77 71 -70 4 3 12 23 18 46 14 49 50 88 84 88 28 0 89 -63 84
-88 -2 -12 -15 -18 -41 -20 -48 -4 -72 -44 -64 -110 7 -66 72 -141 110 -126
23 9 22 15 -13 60 -26 32 -30 45 -28 83 3 44 5 47 42 59 21 6 49 21 63 32 34
26 42 25 53 -7 31 -85 79 -113 189 -113 76 0 88 -6 133 -72 9 -13 54 -43 101
-65 101 -49 158 -89 204 -142 25 -30 43 -41 76 -46 23 -4 85 -18 137 -31 110
-28 153 -30 170 -9 32 38 -56 131 -202 216 -40 23 -116 70 -168 104 -110 72
-175 109 -390 220 -119 62 -160 88 -177 114 -16 23 -41 41 -77 56 -74 30 -126
73 -182 151 -44 62 -84 162 -84 211 0 12 -6 28 -12 35 -39 41 -41 48 -24 67
15 17 15 19 0 32 -24 19 -181 24 -214 6z"/>
<path d="M8698 10274 c-21 -14 -38 -28 -38 -32 0 -4 -23 -25 -52 -47 -28 -22
-101 -83 -162 -135 -127 -108 -116 -98 -192 -170 -118 -112 -129 -118 -224
-122 l-85 -3 -3 28 c-3 22 -8 28 -20 24 -9 -3 -54 -16 -100 -30 -97 -29 -109
-38 -118 -82 -5 -28 -14 -38 -57 -58 -29 -14 -86 -32 -127 -42 -41 -10 -89
-28 -107 -41 -40 -30 -47 -30 -67 1 -20 31 -65 33 -91 5 -27 -30 -48 -32 -110
-15 -69 21 -105 14 -105 -19 0 -43 -19 -48 -126 -31 -80 13 -104 21 -126 42
l-28 26 -60 -16 c-33 -9 -71 -17 -84 -17 -15 0 -30 -8 -36 -21 -18 -33 -71
-49 -161 -49 -64 0 -87 4 -108 20 -65 45 -183 44 -278 -2 l-42 -21 -49 32
c-54 35 -68 37 -96 16 -14 -10 -45 -15 -98 -15 -51 0 -89 -5 -109 -15 -32 -17
-69 -6 -69 20 0 19 -15 19 -45 -1 -22 -15 -34 -15 -141 0 -63 9 -150 16 -193
16 -67 0 -82 3 -111 25 -30 22 -44 25 -120 25 -96 0 -141 11 -183 47 -42 35
-73 38 -167 19 -123 -25 -193 -25 -219 -2 -31 28 -125 47 -204 39 -45 -4 -71
-11 -74 -20 -9 -24 27 -52 76 -58 41 -6 207 -49 286 -74 68 -22 222 -55 425
-91 368 -66 866 -104 1365 -103 430 0 542 9 965 79 151 25 218 43 277 74 31
17 72 30 92 30 70 1 122 17 154 47 34 32 66 51 137 79 25 9 68 27 95 39 28 12
65 25 82 28 41 8 119 43 158 71 16 11 37 26 47 31 41 24 224 149 233 159 24
27 94 76 109 76 13 0 16 -11 16 -49 0 -34 9 -67 30 -109 34 -70 36 -83 14
-117 -20 -31 -63 -33 -89 -5 -28 31 -13 52 31 44 31 -6 35 -4 32 11 -1 10 -15
27 -30 38 -39 29 -72 17 -86 -31 -19 -61 -18 -65 54 -291 8 -25 14 -57 14 -72
0 -15 6 -34 13 -41 33 -33 36 -51 10 -71 -21 -17 -24 -26 -21 -71 3 -44 6 -51
26 -54 27 -4 27 -11 1 -87 -13 -37 -23 -99 -26 -162 l-6 -102 31 -28 c29 -27
62 -103 62 -144 0 -11 -9 -37 -20 -59 -26 -51 -26 -54 10 -92 17 -17 30 -34
30 -38 0 -18 -43 -59 -84 -81 -44 -23 -51 -33 -72 -103 -34 -114 -423 -159
-1649 -191 -456 -12 -2721 -26 -3240 -20 -949 10 -1310 32 -1329 82 -15 38 9
43 218 44 236 0 281 6 281 34 0 23 -23 27 -265 45 -175 12 -333 35 -393 56
-47 17 -87 50 -87 73 0 9 -4 23 -10 31 -8 12 -10 12 -15 -2 -4 -11 15 -61 48
-130 30 -62 60 -139 67 -170 25 -123 30 -575 36 -2898 4 -1381 10 -2420 15
-2426 10 -13 64 -18 419 -39 968 -59 2815 -41 4130 40 725 45 1191 92 1493
151 71 14 135 23 143 20 9 -4 14 -21 14 -53 2 -121 27 -289 52 -343 34 -74 47
-133 57 -271 5 -64 14 -125 20 -137 6 -11 11 -36 11 -56 0 -19 5 -47 11 -63 6
-15 15 -53 19 -83 10 -72 36 -173 61 -232 21 -52 25 -135 9 -218 -6 -29 -12
-165 -15 -303 -3 -138 -7 -252 -9 -254 -2 -3 -7 9 -11 26 -6 28 -43 68 -110
118 -17 13 -72 55 -124 95 -158 123 -178 136 -274 166 -222 72 -504 124 -922
169 -118 13 -247 17 -495 18 l-335 0 -128 -33 c-70 -17 -135 -36 -145 -41 -9
-5 -39 -17 -67 -26 -90 -31 -342 -152 -375 -179 -8 -7 -24 -16 -35 -20 -11 -4
-85 -51 -165 -104 -173 -115 -327 -261 -349 -328 -27 -84 27 -113 163 -88 44
8 90 19 101 24 20 10 88 34 138 50 60 19 219 106 349 192 76 50 156 97 178
104 82 28 288 174 324 228 8 13 31 34 51 46 32 20 41 21 74 11 21 -6 58 -11
82 -11 27 0 56 -8 74 -20 22 -15 47 -20 95 -20 53 0 72 -5 102 -25 41 -28 58
-31 76 -13 18 18 110 26 197 16 58 -6 93 -17 132 -38 29 -17 62 -30 73 -30 11
0 45 14 75 30 30 17 65 30 77 30 21 0 20 -1 -7 -30 -18 -18 -25 -34 -19 -39 5
-5 57 -12 116 -15 101 -7 108 -6 128 14 26 26 65 21 75 -9 9 -31 73 -53 175
-63 52 -6 101 -14 107 -20 7 -6 18 -28 25 -50 14 -47 29 -56 60 -34 54 38 174
7 221 -56 25 -33 17 -44 -37 -52 -42 -7 -63 -26 -50 -47 3 -5 43 -9 89 -9 63
0 88 -4 99 -16 20 -20 21 -19 -9 -58 -29 -38 -31 -66 -10 -127 9 -23 15 -68
14 -100 -1 -31 1 -61 5 -68 12 -18 34 -13 51 13 10 15 33 28 63 36 91 23 124
80 129 223 2 75 8 107 24 139 48 95 59 164 58 380 0 112 -5 235 -10 273 -6 39
-15 192 -20 340 -11 339 -11 339 -3 403 5 47 2 61 -25 116 -25 52 -31 76 -31
132 0 38 -7 94 -15 124 -8 30 -15 73 -15 95 0 22 -7 51 -15 65 -8 14 -14 53
-15 90 0 36 -7 90 -15 120 -13 48 -15 388 -15 2589 l0 2534 63 66 c35 36 69
82 75 101 24 72 32 269 32 741 0 521 -13 931 -32 992 -9 29 -8 46 2 76 7 23 9
44 4 54 -8 12 -14 11 -46 -9z m-335 -2209 c28 -21 35 -69 48 -315 14 -282 7
-2848 -10 -3450 -15 -551 -41 -1059 -55 -1090 -21 -46 -43 -37 -62 27 -9 32
-20 67 -25 78 -36 84 -68 222 -94 400 -8 61 -22 151 -30 200 -8 50 -20 122
-25 160 -14 95 -39 775 -40 1065 0 217 23 660 34 679 3 5 12 66 21 137 29 248
36 299 41 316 2 9 12 58 21 110 13 77 17 219 23 833 7 789 6 787 56 841 26 27
68 31 97 9z m-488 -52 c50 -20 103 -20 143 1 30 16 33 15 52 -4 17 -17 20 -33
20 -110 0 -87 -1 -91 -25 -102 -14 -6 -25 -17 -25 -24 0 -7 20 -38 45 -68 47
-58 55 -85 30 -106 -26 -21 -53 -74 -60 -116 -6 -37 -3 -45 29 -83 26 -31 36
-53 36 -77 0 -19 -3 -34 -7 -34 -4 0 -53 45 -108 100 -118 115 -145 126 -145
58 0 -79 51 -209 109 -282 41 -51 47 -79 31 -146 -27 -117 -26 -136 14 -180
20 -22 36 -43 36 -46 0 -4 -11 -17 -25 -30 -29 -27 -24 -54 10 -54 13 0 26 -4
29 -8 12 -20 -16 -35 -79 -41 -91 -10 -104 -27 -105 -137 0 -74 2 -84 30 -123
25 -33 28 -42 15 -46 -8 -3 -22 -7 -30 -10 -29 -9 -16 -48 31 -93 50 -47 51
-52 25 -147 -6 -22 -11 -102 -11 -178 0 -111 4 -148 19 -192 20 -55 20 -56 -1
-102 -19 -44 -21 -73 -29 -507 -13 -772 -22 -866 -85 -933 -33 -35 -33 -35
-98 -28 -55 6 -72 4 -108 -14 -61 -29 -131 -104 -173 -184 -43 -84 -46 -124
-9 -133 35 -9 46 6 55 72 9 66 28 97 88 138 68 49 134 35 164 -34 6 -14 11
-56 11 -95 1 -67 2 -70 30 -80 24 -8 31 -6 48 15 15 19 18 33 14 60 -4 19 -9
74 -13 123 -5 72 -3 87 8 87 27 0 46 -53 53 -143 11 -138 29 -161 88 -112 30
25 30 25 62 7 61 -36 38 -86 -45 -97 -51 -7 -63 -19 -30 -30 40 -12 71 -46 71
-76 0 -16 -6 -31 -12 -33 -65 -17 -73 -22 -73 -46 0 -23 5 -25 46 -28 35 -2
53 -10 72 -30 33 -35 41 -82 13 -82 -16 0 -28 -24 -20 -43 15 -40 -66 -139
-159 -193 -42 -24 -76 -36 -119 -41 -43 -4 -68 -13 -89 -30 -38 -32 -61 -27
-72 17 -19 79 -43 139 -81 202 -48 82 -108 143 -130 135 -14 -5 -10 -14 18
-52 52 -68 136 -241 136 -280 0 -19 -5 -37 -11 -40 -17 -11 -54 31 -74 87 -37
102 -128 163 -211 139 -96 -27 -219 -148 -226 -221 -2 -27 -8 -36 -25 -38 -17
-3 -26 3 -32 21 -14 36 -28 41 -48 17 -10 -11 -23 -20 -31 -20 -7 0 -26 -14
-41 -31 -34 -36 -41 -30 -50 44 -7 61 -26 72 -35 20 -10 -51 -43 -120 -63
-127 -47 -19 -81 30 -128 183 -42 136 -64 180 -123 244 -59 63 -131 110 -213
138 -54 18 -79 20 -159 16 -106 -6 -157 -22 -240 -77 -87 -58 -190 -199 -190
-261 0 -31 17 -22 47 26 15 25 37 60 48 78 11 18 41 46 67 63 60 41 209 103
275 115 62 12 157 -2 214 -31 42 -22 162 -149 189 -200 18 -36 43 -190 35
-225 -2 -11 -6 -32 -10 -47 -4 -19 -12 -28 -25 -28 -26 0 -40 36 -40 99 0 115
-61 217 -162 272 -59 31 -69 34 -158 34 -83 0 -102 -3 -150 -27 -113 -55 -165
-124 -240 -311 -34 -87 -64 -89 -108 -6 -28 54 -45 56 -53 6 -12 -73 -45 -74
-84 -3 -26 48 -50 44 -51 -9 0 -47 -14 -53 -58 -26 -44 28 -57 27 -91 -9 -50
-52 -124 -62 -167 -23 -10 9 -25 42 -34 73 -11 41 -27 68 -53 93 -161 153
-542 61 -656 -158 -17 -31 -33 -59 -37 -61 -4 -3 -15 7 -24 21 -18 27 -16 82
6 156 11 40 71 108 145 164 75 57 93 85 57 85 -27 0 -80 -42 -211 -164 -63
-58 -120 -106 -127 -106 -6 0 -17 -6 -23 -14 -6 -7 -24 -16 -39 -19 -15 -3
-45 -18 -67 -33 -34 -22 -54 -28 -125 -32 -83 -4 -86 -4 -124 27 -54 43 -78
40 -91 -12 -11 -40 -55 -37 -100 7 -25 26 -47 37 -81 42 -30 4 -58 17 -81 37
l-35 31 -41 -16 c-23 -9 -56 -22 -73 -29 -68 -27 -82 17 -38 124 37 91 64 174
64 196 0 30 17 34 47 11 23 -18 28 -19 35 -5 6 10 -1 36 -22 79 l-31 63 30 45
c17 25 37 50 44 57 8 6 56 14 108 17 143 9 162 21 175 117 14 103 70 197 156
260 48 36 82 50 183 78 89 24 141 24 234 -1 90 -24 107 -25 115 -4 8 21 -9 50
-41 71 -21 14 -47 17 -117 17 -105 -1 -210 -31 -309 -90 -32 -19 -61 -34 -64
-34 -12 0 -93 -69 -167 -142 -44 -43 -84 -77 -90 -75 -6 2 -10 18 -9 35 9 115
152 256 318 314 199 70 449 63 575 -17 41 -26 60 -26 60 0 0 7 -38 41 -85 76
-107 79 -102 102 14 58 60 -22 77 -16 67 24 -4 19 -15 26 -42 31 -44 9 -174
-1 -269 -19 -38 -8 -108 -17 -155 -21 -82 -6 -87 -5 -117 20 -30 26 -34 26
-181 26 -187 0 -222 11 -221 68 1 66 25 177 37 175 7 -2 21 -12 32 -23 41 -41
57 -17 41 62 -6 29 -18 96 -25 148 -16 103 -11 126 29 136 31 8 32 26 2 58
-15 16 -31 54 -41 98 -21 89 -9 144 37 166 42 20 29 62 -19 62 -26 0 -42 18
-22 25 12 4 52 12 71 14 4 1 7 12 7 26 0 16 -6 25 -16 25 -32 0 -74 35 -89 73
-9 22 -25 47 -37 57 -29 23 -18 48 24 52 27 2 34 8 36 30 2 15 18 58 36 95 44
90 25 96 -54 18 -37 -36 -63 -55 -70 -50 -18 11 -4 110 22 157 l22 38 -20 15
c-64 44 -124 97 -124 109 0 7 9 21 20 31 49 44 -31 213 -117 246 -40 15 -25
29 31 29 30 0 58 4 61 10 8 14 -67 166 -110 223 -40 52 -65 59 -88 25 -12 -18
-18 -20 -28 -11 -10 10 -9 16 4 31 9 10 17 24 17 30 0 7 11 29 23 50 42 65 95
171 101 200 7 31 -14 69 -32 58 -7 -4 -12 -22 -12 -40 0 -18 -10 -48 -23 -67
-24 -35 -81 -79 -103 -79 -25 0 -15 39 16 62 30 22 42 70 20 83 -50 31 106
115 215 115 23 0 48 6 54 13 14 18 18 144 4 158 -6 6 -35 -9 -89 -49 -95 -70
-199 -134 -331 -202 -54 -28 -107 -60 -118 -70 -17 -18 -18 -23 -6 -57 7 -21
39 -85 71 -143 71 -128 161 -315 195 -407 14 -37 29 -77 34 -88 22 -52 34 -85
66 -189 19 -61 40 -124 46 -141 11 -31 63 -245 78 -325 10 -48 24 -129 41
-225 22 -122 35 -315 33 -485 -2 -182 -4 -202 -47 -465 -14 -88 -33 -214 -42
-280 -45 -318 -287 -843 -494 -1068 -82 -90 -116 -102 -185 -67 -45 23 -87 25
-204 9 -63 -9 -85 -8 -96 1 -13 11 -15 319 -15 2494 0 1540 4 2487 10 2496 8
13 120 15 912 12 1002 -3 1278 -12 1318 -41 14 -10 25 -24 25 -31 0 -8 -11
-17 -25 -20 -14 -4 -68 -26 -120 -50 -120 -54 -145 -64 -200 -85 -25 -9 -52
-21 -60 -26 -8 -5 -22 -12 -30 -15 -8 -3 -30 -12 -47 -20 -18 -8 -47 -21 -65
-28 -18 -8 -89 -42 -156 -75 -68 -34 -128 -61 -132 -61 -5 0 -43 -21 -85 -46
-49 -30 -85 -61 -105 -89 -16 -24 -43 -57 -60 -73 -37 -37 -38 -54 -3 -86 36
-33 135 -86 162 -86 34 0 24 26 -16 47 -65 32 -93 55 -93 74 0 15 7 19 38 19
46 0 53 5 84 55 26 42 46 53 628 339 77 38 97 49 128 66 9 6 28 15 41 20 35
15 114 72 131 95 8 10 24 37 35 59 16 33 27 42 55 47 49 9 1126 34 1395 32
211 -1 264 -7 331 -34 28 -11 34 -9 82 24 69 47 84 51 127 32 21 -8 61 -15 89
-15 89 0 234 -30 390 -81 83 -27 156 -49 163 -49 25 0 23 20 -5 52 -43 49 -54
74 -39 86 14 12 203 29 342 30 71 1 112 -4 140 -15z m-3905 -3655 c0 -7 -19
-29 -42 -48 -23 -19 -63 -53 -88 -76 -63 -56 -190 -154 -201 -154 -37 0 28 81
139 173 129 107 192 141 192 105z m2329 -1028 c25 -13 65 -161 56 -206 -13
-70 -111 -119 -240 -119 -165 0 -252 109 -178 223 31 48 85 79 172 98 69 15
166 17 190 4z m1034 -86 c37 -19 97 -73 97 -88 0 -6 -14 -39 -32 -74 -28 -52
-39 -64 -68 -72 -84 -24 -169 -5 -208 45 -26 33 -28 65 -5 108 19 38 35 52 88
77 49 24 86 25 128 4z m-2480 -114 c36 -22 75 -40 86 -40 21 0 61 -32 61 -49
0 -31 -14 -41 -57 -41 -24 0 -72 -7 -107 -16 -61 -15 -65 -15 -104 5 -51 26
-49 26 -56 -4 -8 -31 -16 -31 -49 -1 -52 48 -41 117 21 131 16 3 40 17 52 31
34 35 74 31 153 -16z m3695 -131 c2 -30 -2 -69 -8 -85 l-12 -29 -23 27 c-49
57 -41 152 13 146 25 -3 27 -7 30 -59z"/>
<path d="M7607 7723 c-22 -22 11 -99 49 -113 23 -9 24 -12 18 -78 -5 -55 -3
-70 9 -81 14 -11 20 -9 42 13 34 34 58 92 49 119 -3 12 -34 50 -67 85 -57 57
-83 72 -100 55z"/>
<path d="M6000 7274 c0 -3 11 -19 25 -35 15 -19 22 -36 18 -47 -15 -41 -50
-42 -105 -2 -44 32 -68 38 -68 17 0 -20 69 -83 120 -109 55 -28 62 -61 15 -66
-38 -3 -75 -22 -75 -37 0 -7 18 -15 40 -19 36 -6 43 -12 62 -51 25 -51 61 -62
74 -23 12 40 6 149 -11 174 -19 29 -19 49 1 107 15 44 15 49 0 72 -13 20 -25
25 -56 25 -22 0 -40 -3 -40 -6z"/>
<path d="M6490 6900 c20 -13 50 -13 50 0 0 6 -15 10 -32 10 -25 0 -29 -3 -18
-10z"/>
<path d="M6560 6875 c7 -8 17 -15 22 -15 6 0 24 -6 41 -14 101 -43 119 -46 91
-15 -25 28 -96 59 -135 59 -27 0 -30 -2 -19 -15z"/>
<path d="M5786 6797 c-30 -22 -8 -28 132 -34 92 -4 134 -2 151 7 43 23 6 33
-131 38 -105 3 -137 1 -152 -11z"/>
<path d="M6512 6788 c3 -7 37 -29 76 -50 110 -58 178 -104 203 -137 24 -33 39
-40 39 -18 0 31 -112 130 -211 186 -56 31 -114 42 -107 19z"/>
<path d="M6295 6684 c-44 -11 -95 -38 -92 -48 2 -7 54 -14 133 -18 266 -13
397 -101 426 -285 11 -74 22 -95 44 -86 9 3 14 21 14 53 0 38 -10 69 -46 139
-59 115 -105 163 -198 207 -65 31 -86 36 -168 39 -51 2 -102 2 -113 -1z"/>
<path d="M5752 6659 c-66 -24 -124 -60 -182 -113 -123 -113 -180 -193 -180
-255 0 -43 11 -58 28 -38 6 6 29 50 53 96 50 99 132 188 204 221 46 20 66 23
230 24 l180 1 0 24 c0 17 -10 29 -35 42 -49 27 -223 25 -298 -2z"/>
<path d="M7172 6609 c-30 -11 -29 -58 3 -144 44 -117 87 -185 115 -185 19 0
10 36 -30 114 -57 111 -51 156 13 106 33 -26 37 -25 37 5 0 16 -14 39 -38 63
-43 43 -67 53 -100 41z"/>
<path d="M6260 6495 c-30 -14 -62 -33 -71 -41 -28 -26 -70 -20 -122 17 -49 34
-49 34 -165 34 -109 0 -120 -2 -163 -27 -122 -72 -199 -213 -199 -364 0 -62 4
-81 25 -114 22 -34 30 -40 60 -40 26 0 39 6 51 25 20 31 12 55 -19 55 -41 0
-57 29 -57 102 0 56 4 71 29 105 18 25 40 42 58 46 49 10 80 42 87 92 8 47 28
59 54 33 8 -8 43 -14 85 -15 40 0 76 -2 80 -2 5 -1 6 -9 2 -20 -3 -12 4 -30
20 -49 14 -17 29 -50 33 -74 10 -58 32 -56 80 7 21 28 52 59 69 70 19 12 33
30 35 45 3 26 2 26 81 13 31 -5 37 -3 37 12 0 14 5 16 28 10 15 -3 34 -13 43
-21 8 -8 20 -14 25 -14 5 0 25 -5 45 -10 28 -8 41 -20 61 -58 30 -55 53 -177
44 -234 -13 -80 -57 -137 -106 -138 -14 0 -43 -12 -64 -26 -51 -35 -101 -27
-172 26 -47 36 -67 63 -93 133 -16 40 -45 32 -49 -13 -2 -20 -12 -40 -23 -48
-11 -8 -30 -35 -42 -60 -33 -71 -63 -82 -224 -82 -111 0 -133 -2 -133 -15 0
-23 49 -42 138 -53 91 -11 127 -5 239 42 70 29 184 37 202 14 6 -7 22 -28 37
-45 39 -49 63 -46 204 21 70 33 143 112 169 181 103 276 -174 593 -419 480z"/>
<path d="M7063 6403 c-22 -8 -15 -26 37 -92 69 -87 90 -160 90 -305 0 -104
-15 -191 -48 -276 -14 -37 -6 -51 22 -39 66 31 98 207 71 392 -21 143 -57 240
-105 290 -38 37 -44 40 -67 30z"/>
<path d="M4999 6318 c-23 -29 -52 -70 -65 -90 -38 -60 -28 -110 13 -65 29 31
109 158 117 185 13 41 -21 25 -65 -30z"/>
<path d="M6953 6273 c-4 -9 7 -42 27 -78 31 -58 33 -64 20 -94 -12 -30 -11
-35 24 -85 40 -59 43 -68 21 -86 -8 -7 -15 -28 -15 -46 0 -33 -28 -74 -50 -74
-18 0 -50 -82 -50 -127 0 -36 3 -43 19 -43 23 0 105 104 132 168 43 99 48 271
12 364 -32 85 -122 149 -140 101z"/>
<path d="M4320 6245 c-7 -8 -10 -22 -6 -30 4 -12 27 -15 120 -15 108 0 114 1
119 22 3 12 4 25 1 30 -3 4 -54 8 -113 8 -84 0 -111 -3 -121 -15z"/>
<path d="M5140 6207 c-23 -18 -75 -87 -96 -127 -13 -26 -18 -56 -18 -115 0
-73 4 -89 38 -158 20 -42 41 -77 46 -77 27 0 20 119 -10 161 -12 17 -17 35
-13 50 10 40 80 143 134 198 33 33 31 50 -8 66 -42 18 -53 18 -73 2z"/>
<path d="M7705 6118 c-2 -7 -6 -38 -7 -68 -3 -51 -5 -55 -27 -52 -22 2 -23 0
-16 -35 4 -21 10 -57 14 -81 4 -23 10 -45 14 -48 25 -25 80 210 62 262 -11 31
-33 43 -40 22z"/>
<path d="M6725 5964 c-55 -118 -101 -182 -165 -229 -49 -36 -61 -57 -39 -70
56 -35 217 156 265 314 14 46 11 81 -7 81 -5 0 -29 -43 -54 -96z"/>
<path d="M4190 5951 c0 -33 -6 -44 -36 -69 -41 -34 -40 -38 21 -123 l29 -41
-22 -18 c-12 -10 -22 -21 -22 -24 0 -3 20 -24 45 -48 57 -51 58 -81 5 -86 -41
-3 -86 -34 -76 -51 10 -16 35 -13 86 12 26 13 50 34 58 50 12 24 11 33 -7 71
-12 23 -21 61 -21 83 0 34 -7 47 -40 82 -43 44 -41 48 19 53 61 5 67 54 13
116 -37 43 -52 41 -52 -7z"/>
<path d="M7690 5675 c-6 -8 -16 -43 -21 -77 -12 -85 -34 -187 -48 -221 -14
-37 -14 -47 2 -47 25 0 43 34 81 152 20 65 42 120 47 123 15 10 10 51 -9 68
-23 21 -36 21 -52 2z"/>
<path d="M4610 5390 c0 -20 5 -30 15 -30 10 0 15 10 15 30 0 20 -5 30 -15 30
-10 0 -15 -10 -15 -30z"/>
<path d="M5149 5185 c-48 -32 -53 -50 -28 -101 36 -76 105 -109 129 -63 16 30
-4 49 -52 49 -26 0 -41 5 -45 16 -8 21 32 60 68 68 25 5 30 10 27 28 -4 33
-53 34 -99 3z"/>
<path d="M6839 4654 c-11 -13 -9 -27 10 -84 l24 -69 -22 -41 c-22 -42 -21 -60
4 -60 29 0 48 -47 43 -105 -6 -72 -21 -88 -42 -46 -33 63 -66 28 -66 -68 0
-53 4 -65 31 -95 44 -51 49 -96 14 -146 -34 -48 -28 -70 19 -70 26 0 41 -8 65
-35 17 -20 31 -44 31 -53 0 -10 -20 -38 -45 -62 -25 -24 -45 -49 -45 -55 0
-15 88 -68 105 -62 31 12 37 80 42 449 6 406 -4 548 -39 593 -16 20 -28 25
-68 25 -31 0 -52 -5 -61 -16z"/>
<path d="M6232 4645 c-62 -27 -123 -77 -120 -100 2 -16 11 -20 48 -22 85 -5
224 -36 264 -59 43 -25 76 -31 76 -15 0 14 -56 54 -120 87 -30 15 -56 29 -58
30 -2 1 3 13 12 26 18 27 11 43 -27 57 -35 13 -35 13 -75 -4z"/>
<path d="M7443 4625 c-33 -23 -104 -29 -192 -15 -72 11 -84 11 -106 -4 -26
-17 -33 -40 -14 -52 17 -10 282 -7 326 5 60 16 78 33 64 59 -14 26 -47 29 -78
7z"/>
<path d="M5903 4511 c-104 -38 -193 -96 -193 -126 0 -22 17 -18 69 13 25 16
83 46 128 68 77 36 96 56 62 61 -8 2 -37 -6 -66 -16z"/>
<path d="M5933 4405 c-106 -52 -203 -117 -203 -135 0 -18 21 -11 123 41 55 28
123 58 151 66 60 18 76 29 76 53 0 34 -38 28 -147 -25z"/>
<path d="M4864 4399 c-14 -28 -19 -31 -52 -26 -21 3 -46 9 -56 13 -18 7 -18 6
-5 -12 28 -38 179 -177 185 -171 4 3 -8 29 -26 57 -18 27 -30 57 -26 65 6 18
71 20 111 5 24 -9 26 -14 21 -43 -4 -23 2 -46 22 -87 15 -30 32 -54 37 -53 6
2 11 29 13 60 2 43 -2 68 -17 98 -34 68 -106 125 -158 125 -26 0 -36 -6 -49
-31z"/>
<path d="M6344 4405 c-4 -9 -5 -17 -3 -19 2 -2 36 -27 74 -56 85 -64 126 -107
172 -183 28 -46 103 -209 103 -224 0 -2 5 -3 11 -3 23 0 2 98 -39 185 -61 127
-149 234 -232 282 -54 32 -79 37 -86 18z"/>
<path d="M4643 4335 c-6 -17 23 -55 43 -55 7 0 14 -5 16 -11 2 -6 11 -10 20
-8 13 3 9 13 -21 47 -41 46 -49 50 -58 27z"/>
<path d="M7604 4319 c-18 -20 -18 -21 1 -35 30 -22 84 -34 153 -34 61 0 62 0
62 28 0 39 -50 62 -134 62 -51 0 -66 -4 -82 -21z"/>
<path d="M6125 4316 c-77 -17 -66 -37 31 -56 129 -26 302 -137 373 -240 25
-37 31 -56 31 -98 0 -39 5 -57 21 -73 17 -17 23 -18 36 -8 23 20 10 86 -34
177 -68 140 -226 278 -338 296 -22 4 -47 9 -55 10 -8 2 -37 -1 -65 -8z"/>
<path d="M5864 4223 c-70 -54 -99 -88 -153 -178 -71 -120 -110 -237 -89 -262
27 -33 59 4 72 83 11 61 55 131 152 235 99 107 118 134 109 149 -12 19 -42 10
-91 -27z"/>
<path d="M4644 4185 c-5 -21 2 -35 37 -74 92 -101 161 -230 173 -319 7 -57 24
-102 38 -102 18 0 29 56 23 109 -17 134 -149 352 -242 400 -20 10 -23 9 -29
-14z"/>
<path d="M6065 4139 c-49 -12 -104 -36 -129 -58 -61 -53 -156 -222 -156 -279
0 -32 16 -52 42 -52 32 0 115 90 129 140 46 161 210 201 348 85 35 -30 39 -50
14 -77 -22 -24 -9 -47 38 -69 58 -28 94 -32 114 -13 21 21 16 53 -21 135 -62
138 -235 224 -379 188z"/>
<path d="M4515 4120 c-18 -28 34 -100 72 -100 19 0 23 5 23 29 0 44 -77 101
-95 71z"/>
<path d="M4874 4105 c6 -24 49 -122 77 -177 24 -47 48 -140 53 -206 6 -82 23
-118 62 -128 31 -8 54 10 36 28 -7 7 -12 25 -12 40 0 29 26 62 141 178 52 52
84 98 76 106 -3 4 -25 -14 -47 -39 -87 -95 -144 -65 -165 85 -6 50 -25 74 -50
64 -19 -7 -20 -59 -1 -89 21 -31 26 -122 7 -122 -14 0 -80 117 -81 145 -2 27
-68 135 -86 138 -14 3 -15 -1 -10 -23z"/>
<path d="M4165 4046 c-89 -23 -127 -45 -190 -111 -80 -82 -115 -142 -115 -193
0 -77 53 -79 121 -5 34 38 40 50 36 76 -2 18 -1 39 4 49 16 30 100 62 179 68
l75 5 5 35 c3 24 13 38 30 47 l24 12 -29 11 c-47 18 -86 20 -140 6z"/>
<path d="M4647 4024 c-18 -18 -6 -98 21 -143 16 -25 39 -68 52 -96 27 -57 39
-68 57 -53 23 18 19 30 -54 183 -37 79 -65 119 -76 109z"/>
<path d="M4373 4004 c-8 -22 8 -64 29 -78 14 -8 24 -4 53 24 53 52 44 70 -36
70 -27 0 -42 -5 -46 -16z"/>
<path d="M5410 3907 c-34 -27 -70 -80 -70 -103 0 -21 5 -24 43 -26 92 -3 127
13 127 59 0 25 -10 29 -27 12 -21 -21 -45 -2 -41 32 3 35 -9 45 -32 26z"/>
<path d="M4467 3774 c-16 -17 -5 -54 24 -78 37 -32 58 -33 93 -5 21 16 26 28
24 53 -3 31 -3 31 -68 34 -36 2 -69 0 -73 -4z"/>
<path d="M6447 3644 c-4 -4 29 -40 72 -81 57 -52 82 -83 86 -106 9 -45 54
-107 76 -107 24 0 24 1 -5 58 -27 53 -65 101 -147 185 -54 55 -69 64 -82 51z"/>
<path d="M4750 3423 c-65 -10 -71 -13 -68 -36 3 -20 7 -22 78 -19 77 2 152
-18 286 -78 29 -13 59 -20 68 -17 39 15 2 83 -65 118 -51 25 -223 44 -299 32z"/>
<path d="M4376 3399 c-87 -69 -206 -219 -206 -261 0 -31 29 -20 55 22 14 22
25 44 25 49 0 6 41 53 90 104 50 52 90 97 90 101 0 13 -28 5 -54 -15z"/>
<path d="M2778 9914 c-44 -13 -10 -39 67 -53 33 -5 92 -17 130 -26 39 -9 104
-20 145 -26 41 -6 105 -17 141 -25 37 -8 93 -14 125 -14 33 0 77 -7 99 -15 22
-8 62 -14 88 -15 27 0 56 -4 66 -10 10 -5 49 -14 87 -19 79 -12 167 -32 207
-49 39 -16 62 -15 78 4 10 12 24 15 61 10 38 -5 48 -4 48 7 0 16 -103 51 -180
63 -25 3 -49 9 -55 13 -5 4 -44 15 -85 24 -41 9 -97 21 -125 27 -27 7 -84 15
-125 19 -41 4 -91 12 -110 19 -91 28 -193 42 -315 43 -71 0 -155 4 -185 9 -88
15 -144 19 -162 14z"/>
<path d="M2927 9741 c-3 -13 -17 -22 -40 -26 -20 -4 -44 -16 -54 -27 -17 -19
-17 -21 10 -44 78 -67 209 24 137 96 -25 25 -46 26 -53 1z"/>
<path d="M8440 9613 c-7 -16 -15 -61 -18 -101 -4 -66 -2 -75 22 -113 32 -48
23 -69 -30 -69 -36 0 -74 -28 -74 -55 0 -8 8 -15 18 -15 33 0 88 -56 102 -105
18 -63 -2 -102 -96 -196 -46 -46 -74 -82 -74 -95 0 -26 36 -43 100 -46 54 -4
63 16 30 62 -25 34 -21 60 9 60 21 0 51 35 51 60 0 8 11 25 25 38 34 33 38 64
32 294 -4 192 -13 260 -40 296 -16 21 -43 13 -57 -15z"/>
<path d="M8295 8510 c-131 -8 -137 -9 -275 -50 -145 -43 -175 -50 -207 -50
-17 0 -86 -11 -154 -25 -158 -33 -277 -52 -459 -72 -172 -20 -619 -22 -858 -4
-152 12 -182 8 -182 -20 0 -14 59 -34 135 -47 205 -33 348 -42 693 -42 373 0
467 8 617 52 79 23 166 43 275 63 189 35 372 78 464 109 56 19 124 37 153 41
54 7 84 27 62 41 -18 11 -131 13 -264 4z"/>
<path d="M2986 8360 c-78 -5 -105 -19 -69 -36 10 -4 290 -11 623 -15 333 -4
646 -12 695 -18 50 -6 180 -13 290 -16 110 -3 212 -8 227 -11 15 -3 37 -3 48
1 67 21 -46 68 -215 89 -110 14 -235 16 -825 14 -382 -2 -731 -5 -774 -8z"/>
<path d="M5801 8303 l-24 -16 23 -19 c39 -32 180 -19 180 17 0 25 -26 35 -90
35 -45 0 -73 -5 -89 -17z"/>
<path d="M4985 8296 c-135 -22 -122 -46 26 -46 79 0 101 3 119 18 50 41 -6 51
-145 28z"/>
<path d="M5385 8305 c-5 -2 -36 -6 -68 -10 -65 -7 -95 -28 -75 -52 11 -13 42
-15 218 -11 113 3 213 9 223 13 29 12 17 49 -18 56 -31 7 -263 10 -280 4z"/>
<path d="M1844 8179 c-4 -6 -13 -91 -20 -188 -7 -97 -23 -238 -35 -314 -22
-132 -22 -139 -5 -170 10 -17 26 -48 36 -67 11 -20 22 -67 26 -107 l7 -71 -44
-27 c-54 -34 -106 -90 -114 -124 -5 -20 -1 -31 20 -48 14 -13 32 -23 40 -23 7
0 25 -13 38 -30 33 -38 43 -113 29 -215 -11 -82 -30 -115 -67 -115 -51 0 -60
-48 -13 -70 20 -9 35 -25 39 -42 4 -15 14 -35 23 -44 11 -11 16 -34 16 -81 0
-65 0 -65 25 -59 18 5 27 2 31 -9 9 -23 -33 -100 -87 -159 -27 -30 -49 -56
-49 -60 0 -3 14 -13 31 -21 47 -25 69 -83 69 -186 0 -100 -12 -142 -51 -184
-36 -38 -59 -161 -59 -311 0 -144 22 -242 60 -274 27 -22 30 -31 30 -80 1 -30
7 -82 15 -115 28 -114 11 -137 -46 -65 -35 44 -63 51 -79 21 -18 -35 -11 -50
37 -71 62 -27 113 -67 113 -87 0 -10 -12 -29 -27 -45 -17 -18 -26 -38 -25 -57
1 -31 25 -85 42 -96 6 -3 17 -20 26 -37 15 -30 15 -32 -9 -54 -15 -14 -27 -39
-31 -66 -10 -68 9 -218 37 -284 31 -72 24 -94 -29 -94 -48 0 -70 -14 -83 -51
-18 -53 -13 -100 15 -140 17 -25 29 -60 36 -111 14 -97 4 -367 -16 -438 -9
-30 -16 -56 -16 -57 0 -1 13 -17 30 -36 47 -54 59 -157 22 -200 -8 -9 -33 -22
-54 -28 -63 -17 -62 -42 7 -128 34 -42 36 -46 33 -117 -2 -67 0 -76 20 -90 14
-9 22 -26 22 -43 0 -62 85 -108 111 -59 39 73 31 4373 -10 5360 -8 175 -11
200 -30 231 -28 45 -70 62 -87 36z"/>
<path d="M924 7925 c-4 -8 -4 -25 0 -38 4 -16 -3 -30 -25 -53 -26 -27 -29 -35
-20 -52 15 -27 102 -56 146 -48 39 8 60 36 49 68 -9 29 -82 106 -116 124 -25
13 -29 13 -34 -1z"/>
<path d="M965 7673 c-34 -18 -109 -76 -142 -111 -35 -36 -30 -52 18 -52 37 0
41 -3 55 -36 12 -28 14 -55 9 -108 -7 -73 9 -226 26 -258 14 -26 4 -52 -47
-114 -24 -29 -44 -58 -44 -64 0 -5 13 -10 29 -10 38 0 79 -34 102 -84 25 -54
24 -60 -11 -99 -16 -19 -30 -39 -30 -45 0 -29 93 -22 148 10 38 23 40 42 11
104 -28 58 -17 71 40 48 23 -9 44 -14 47 -11 3 3 -12 23 -33 45 -27 28 -53 44
-86 52 -26 7 -47 18 -47 24 0 30 102 106 143 106 16 0 30 7 34 16 9 23 -43 65
-134 109 -40 20 -73 38 -73 41 0 2 10 21 23 42 67 107 89 261 46 315 -16 21
-18 31 -10 46 27 50 -9 67 -74 34z"/>
<path d="M998 6465 c-10 -13 -18 -30 -18 -37 -1 -7 -7 -31 -15 -53 -17 -46 -7
-65 34 -65 16 0 37 -10 51 -25 41 -44 76 -25 42 23 -20 28 -49 109 -54 151 -4
33 -19 35 -40 6z"/>
<path d="M787 5582 c-10 -10 -17 -25 -17 -33 0 -21 33 -82 59 -110 50 -52 81
-121 81 -179 0 -30 4 -60 8 -66 15 -22 50 -34 74 -25 13 5 32 12 43 16 16 5
17 8 5 15 -8 6 -30 10 -48 10 -46 0 -54 26 -17 56 26 20 27 25 16 51 -6 15
-29 46 -49 68 -63 66 -112 146 -112 182 0 37 -18 43 -43 15z"/>
<path d="M844 4882 c-29 -4 -136 -101 -132 -119 2 -9 19 -21 38 -27 23 -7 36
-19 40 -35 3 -14 11 -26 18 -29 13 -4 32 37 32 71 0 13 13 33 31 48 27 22 30
30 25 56 -8 33 -19 41 -52 35z"/>
<path d="M740 4268 c-52 -91 -33 -177 43 -200 41 -12 61 -37 51 -62 -4 -10 -1
-16 9 -16 19 0 89 78 84 93 -2 7 -28 13 -60 15 -48 3 -60 7 -73 28 -15 22 -15
33 -4 98 19 111 -1 128 -50 44z"/>
<path d="M759 3781 c-42 -43 -49 -57 -49 -90 0 -21 7 -55 15 -74 8 -20 15 -51
15 -68 0 -18 7 -57 16 -88 9 -31 18 -62 21 -70 8 -31 24 8 30 75 7 88 16 104
54 104 39 0 89 48 89 84 0 16 -6 26 -15 26 -8 0 -15 -4 -15 -10 0 -15 -56 -40
-90 -40 -22 0 -30 5 -30 18 0 10 5 23 12 30 8 8 8 15 -1 26 -7 8 -11 25 -9 38
2 19 10 24 41 26 35 3 38 6 35 30 -2 23 -9 28 -37 30 -29 3 -40 -3 -82 -47z"/>
<path d="M3 3410 c0 -36 2 -50 4 -32 2 17 2 47 0 65 -2 17 -4 3 -4 -33z"/>
<path d="M5295 1509 c-38 -4 -126 -15 -195 -24 -69 -9 -156 -20 -193 -25 -37
-5 -76 -11 -86 -15 -10 -3 -56 -12 -102 -20 -162 -28 -411 -83 -609 -135 -19
-5 -80 -20 -135 -35 -55 -14 -120 -30 -144 -36 -25 -5 -59 -13 -75 -18 -17 -5
-58 -17 -91 -26 -33 -9 -78 -23 -100 -30 -22 -6 -65 -19 -95 -28 -112 -32
-266 -79 -305 -93 -23 -8 -46 -14 -52 -14 -7 0 -24 -5 -40 -12 -15 -6 -46 -17
-68 -23 -22 -7 -98 -34 -170 -60 -71 -26 -139 -49 -150 -53 -49 -14 -259 -113
-307 -145 -30 -19 -71 -38 -91 -42 -31 -6 -38 -11 -35 -29 3 -18 11 -21 52
-24 59 -4 98 10 151 55 37 32 42 33 111 31 59 -3 76 0 93 16 18 16 25 17 47 8
39 -18 51 -15 98 28 46 43 70 49 95 26 14 -13 20 -11 50 15 l34 29 163 0 c173
0 184 3 199 51 6 17 12 20 33 14 88 -22 98 -20 154 33 48 45 87 72 103 72 3 0
10 -12 15 -26 l10 -26 33 21 c17 12 57 33 87 47 30 15 63 30 72 35 9 5 36 11
60 14 48 7 112 21 268 61 58 14 121 30 140 34 19 5 51 13 70 19 62 19 93 14
115 -19 26 -39 40 -38 69 9 26 41 52 51 131 51 48 0 212 27 229 38 6 4 29 7
51 8 26 0 72 16 130 45 50 24 117 55 150 67 33 13 69 28 80 33 11 5 49 20 85
33 125 47 145 57 129 67 -16 10 -163 9 -264 -2z"/>
<path d="M722 1328 c-6 -6 -12 -33 -12 -58 0 -35 5 -51 23 -67 63 -58 147 -58
147 -1 0 14 -8 18 -35 18 -25 0 -37 6 -46 22 -10 18 -8 24 11 38 37 28 23 54
-30 58 -26 2 -50 -2 -58 -10z"/>
<path d="M754 1122 c-18 -2 -39 -11 -48 -21 -14 -16 -15 -23 -4 -47 20 -47 49
-74 80 -74 16 0 39 -5 50 -11 19 -10 20 -9 13 12 -4 13 -9 40 -12 59 -10 83
-15 88 -79 82z"/>
<path d="M1142 878 c-19 -19 -83 -40 -142 -47 -47 -5 -55 -9 -58 -28 -2 -14 4
-26 17 -33 25 -13 27 -38 6 -66 -21 -28 -18 -49 10 -62 36 -17 51 -6 78 51 13
29 52 82 86 119 33 36 61 69 61 72 0 11 -46 6 -58 -6z"/>
<path d="M0 422 c0 -22 5 -32 16 -32 11 0 14 6 9 23 -12 38 -25 43 -25 9z"/>
</g>
</svg>
