<?xml version="1.0" standalone="no"?>
<!DOCTYPE svg PUBLIC "-//W3C//DTD SVG 20010904//EN"
 "http://www.w3.org/TR/2001/REC-SVG-20010904/DTD/svg10.dtd">
<svg version="1.0" xmlns="http://www.w3.org/2000/svg"
 width="681.000000pt" height="357.000000pt" viewBox="0 0 681.000000 357.000000"
 preserveAspectRatio="xMidYMid meet">
<metadata>
Created by potrace 1.10, written by Peter Selinger 2001-2011
</metadata>
<g transform="translate(0.000000,357.000000) scale(0.100000,-0.100000)"
fill="#000000" stroke="none">
<path d="M921 3485 c-18 -8 -50 -15 -70 -15 -20 -1 -47 -7 -61 -15 -14 -8 -43
-15 -65 -15 -22 0 -49 -7 -59 -15 -11 -8 -29 -15 -40 -15 -12 0 -30 -7 -40
-15 -11 -8 -30 -15 -42 -15 -13 0 -29 -7 -38 -15 -8 -8 -21 -15 -28 -15 -8 0
-23 -7 -34 -15 -10 -8 -25 -15 -33 -15 -8 0 -22 -6 -30 -14 -9 -8 -32 -22 -51
-33 -70 -38 -140 -85 -140 -94 0 -5 -6 -9 -13 -9 -7 0 -26 -12 -43 -27 -16
-16 -49 -43 -72 -61 -23 -19 -42 -37 -42 -42 0 -4 23 -32 51 -61 28 -30 57
-67 65 -82 15 -28 16 -28 37 -10 11 10 33 30 47 44 27 28 145 119 154 119 3 0
24 12 48 28 24 15 52 32 63 39 33 20 107 53 119 53 7 0 17 5 24 12 12 12 79
34 137 45 17 3 39 12 50 19 11 8 34 14 51 14 18 0 66 7 107 16 132 27 494 7
569 -32 14 -8 34 -14 45 -14 25 -1 122 -35 136 -49 6 -6 20 -11 32 -11 12 0
30 -7 41 -15 10 -8 26 -15 35 -15 9 0 19 -7 23 -15 3 -8 13 -15 22 -15 32 0
218 -135 300 -217 46 -46 86 -83 90 -83 3 0 35 27 71 60 36 33 70 60 74 60 5
0 9 11 9 25 0 14 -3 25 -7 25 -5 0 -28 19 -53 43 -25 24 -67 61 -95 82 -27 22
-59 48 -70 57 -47 39 -124 89 -172 114 -29 14 -53 30 -53 35 0 5 -11 9 -24 9
-13 0 -29 7 -36 15 -7 8 -20 15 -30 15 -10 0 -23 7 -30 15 -7 8 -24 15 -39 15
-14 0 -35 7 -45 15 -11 8 -30 15 -42 15 -12 0 -27 7 -34 15 -7 9 -30 15 -54
15 -22 1 -52 7 -66 15 -14 8 -41 14 -61 15 -20 0 -53 7 -72 15 -52 21 -466 21
-516 0z"/>
<path d="M1110 3076 c-8 -7 -56 -16 -142 -26 -42 -5 -86 -13 -97 -19 -11 -6
-33 -11 -49 -11 -16 0 -35 -7 -42 -15 -7 -8 -21 -15 -31 -15 -17 0 -74 -21
-109 -41 -8 -4 -35 -18 -60 -30 -25 -13 -48 -27 -51 -32 -7 -10 -46 -34 -71
-43 -10 -3 -18 -9 -18 -13 0 -4 -29 -27 -65 -50 -36 -24 -65 -50 -65 -58 0 -7
24 -39 54 -70 l54 -57 63 58 c34 32 72 62 85 67 13 4 24 13 24 19 0 5 5 10 11
10 7 0 34 14 61 30 26 17 57 30 67 30 10 0 24 7 31 15 7 8 20 15 29 15 10 0
26 7 37 15 10 8 36 15 57 15 21 0 50 6 65 14 23 12 240 34 266 27 5 -1 45 -5
90 -8 44 -3 93 -12 108 -19 15 -8 44 -14 65 -14 21 0 47 -7 57 -15 11 -8 27
-15 37 -15 9 0 22 -7 29 -15 7 -8 23 -15 36 -15 12 0 26 -5 29 -11 4 -5 18
-14 31 -19 48 -19 162 -101 220 -160 32 -33 64 -60 71 -60 7 0 25 12 40 26 15
15 38 33 51 41 23 16 31 63 10 63 -7 0 -26 14 -43 31 -30 32 -180 149 -189
149 -3 0 -25 14 -49 30 -25 17 -52 30 -60 30 -8 0 -17 7 -21 15 -3 8 -16 15
-28 15 -13 0 -32 7 -42 15 -11 8 -29 15 -41 15 -12 0 -26 5 -32 11 -15 15 -49
22 -268 60 -82 14 -198 23 -205 15z"/>
<path d="M1030 2615 c-14 -8 -38 -15 -55 -15 -16 0 -39 -7 -49 -15 -11 -8 -32
-15 -47 -15 -14 0 -32 -7 -39 -15 -7 -8 -18 -15 -25 -15 -7 0 -18 -7 -25 -15
-7 -8 -21 -15 -31 -15 -11 0 -19 -4 -19 -8 0 -4 -29 -27 -65 -50 -36 -24 -65
-48 -65 -54 0 -7 10 -27 23 -45 25 -37 58 -43 79 -15 20 26 114 95 148 108 8
3 28 12 43 20 16 7 35 14 43 14 8 0 26 8 40 17 38 24 350 24 385 -1 13 -9 33
-16 44 -16 11 0 29 -7 39 -15 11 -8 25 -15 32 -15 20 0 130 -78 163 -115 17
-19 39 -35 50 -35 24 0 71 41 71 63 0 9 -21 33 -47 54 -26 21 -56 45 -65 53
-22 18 -85 56 -115 69 -11 5 -24 15 -28 20 -3 6 -19 11 -34 11 -15 0 -36 7
-47 15 -10 8 -32 15 -47 15 -15 0 -44 7 -64 15 -48 20 -257 20 -293 0z"/>
<path d="M1065 2274 c-15 -23 -17 -57 -17 -278 0 -173 3 -259 11 -274 11 -20
19 -22 115 -22 87 0 105 3 119 18 15 16 17 51 17 279 0 258 0 260 -23 281 -20
19 -35 22 -114 22 -87 0 -91 -1 -108 -26z m145 -274 c0 -71 -4 -130 -9 -130
-16 0 -21 30 -21 125 0 65 -4 95 -12 99 -9 3 -7 9 6 20 11 9 23 16 28 16 4 0
8 -58 8 -130z"/>
<path d="M870 2165 c-14 -8 -32 -14 -41 -15 -9 0 -22 -7 -29 -15 -7 -8 -21
-15 -31 -15 -35 0 -199 -97 -265 -157 -17 -15 -44 -40 -60 -54 -63 -56 -168
-190 -199 -254 -11 -22 -26 -44 -32 -48 -7 -4 -13 -18 -13 -30 0 -12 -7 -31
-15 -41 -8 -11 -15 -30 -15 -43 0 -13 -7 -26 -15 -29 -10 -4 -15 -20 -15 -45
0 -22 -7 -56 -16 -77 -23 -53 -23 -407 0 -471 9 -24 16 -58 16 -76 0 -18 7
-38 15 -45 8 -7 15 -22 15 -34 0 -12 7 -31 15 -42 8 -10 15 -29 15 -41 0 -12
4 -25 10 -28 5 -3 20 -28 32 -55 13 -28 26 -50 30 -50 4 0 14 -13 22 -28 27
-53 238 -272 261 -272 4 0 24 -13 45 -30 21 -16 45 -30 53 -30 9 0 18 -4 21
-9 9 -14 90 -51 112 -51 11 0 25 -5 31 -11 6 -6 31 -16 55 -22 59 -14 568 -21
582 -7 5 5 21 10 36 10 14 1 36 7 50 15 14 8 37 14 52 15 15 0 29 4 33 9 3 6
33 23 68 39 34 16 71 39 81 51 11 11 23 21 28 21 35 0 288 280 288 319 0 11
-13 13 -61 7 -34 -3 -121 -6 -194 -6 l-132 0 -69 -53 c-38 -30 -76 -57 -84
-60 -8 -4 -35 -18 -59 -32 -24 -14 -55 -25 -69 -25 -14 0 -34 -8 -44 -17 -17
-15 -43 -17 -191 -18 -148 0 -175 2 -197 18 -13 9 -34 17 -46 17 -12 0 -35 7
-51 14 -15 8 -35 18 -43 21 -8 3 -28 14 -45 25 -16 11 -36 23 -43 26 -44 22
-202 181 -202 204 0 4 -7 10 -15 14 -8 3 -15 14 -15 24 0 11 -7 25 -15 32 -8
7 -15 20 -15 30 0 10 -7 23 -15 30 -8 7 -15 27 -15 45 0 18 -6 38 -14 44 -8 7
-16 31 -19 54 -2 23 -10 79 -17 125 -12 73 -11 94 5 185 10 56 24 109 32 118
7 8 13 26 13 39 0 25 36 106 51 116 5 3 9 12 9 20 0 15 13 34 43 62 9 9 17 21
17 27 0 13 139 155 152 155 4 0 27 14 50 30 22 17 49 30 58 30 10 0 23 6 30
14 6 8 24 16 38 18 l27 3 3 163 2 162 -27 0 c-16 -1 -39 -7 -53 -15z m-54
-180 c11 -28 -6 -63 -43 -86 -20 -13 -44 -28 -52 -34 -67 -43 -208 -184 -243
-243 -51 -85 -112 -203 -125 -242 -30 -90 -43 -250 -31 -372 21 -212 100 -381
253 -538 63 -65 76 -76 128 -108 16 -9 45 -29 64 -45 20 -15 42 -27 49 -27 7
0 34 -11 61 -24 26 -13 80 -29 118 -36 39 -7 79 -15 90 -20 30 -11 240 7 320
27 65 16 199 82 282 139 38 25 125 34 138 14 11 -18 -84 -113 -149 -148 -33
-19 -68 -40 -76 -47 -8 -7 -35 -18 -60 -25 -25 -7 -49 -16 -55 -20 -5 -5 -28
-11 -50 -15 -22 -4 -62 -14 -88 -22 -37 -12 -80 -14 -190 -11 -134 5 -149 8
-267 47 -69 23 -144 55 -167 71 -23 17 -46 30 -52 30 -10 0 -49 32 -168 136
-29 25 -53 52 -53 59 0 7 -6 15 -14 18 -30 12 -118 159 -160 267 -99 255 -91
566 20 800 42 88 37 81 93 161 77 109 193 214 301 272 75 39 117 47 126 22z"/>
<path d="M1406 2024 c1 -86 5 -158 8 -162 6 -6 64 -28 101 -39 11 -3 36 -19
56 -35 20 -15 41 -28 46 -28 5 0 21 -15 37 -32 l29 -33 106 3 c58 2 146 -2
195 -7 50 -6 91 -9 93 -7 8 8 -21 63 -64 119 -52 69 -182 197 -200 197 -7 0
-16 6 -20 13 -4 8 -15 17 -23 20 -8 4 -28 16 -45 26 -59 38 -106 61 -124 61
-10 0 -24 7 -31 15 -7 8 -22 15 -34 15 -11 1 -32 7 -46 15 -14 8 -39 14 -56
15 l-30 0 2 -156z m259 -51 c66 -34 112 -71 136 -112 24 -40 15 -51 -44 -51
-28 0 -58 13 -127 58 -93 59 -111 83 -90 122 14 26 48 21 125 -17z"/>
<path d="M2304 2148 c-3 -4 -5 -173 -5 -375 l0 -368 208 0 208 0 0 54 c0 65
-14 83 -58 77 -70 -11 -207 -17 -208 -9 -7 44 -4 176 5 187 9 11 23 13 63 6
90 -15 183 -16 192 -2 4 7 7 38 6 70 l-1 57 -136 3 -137 3 1 72 c0 114 -4 109
96 102 48 -3 101 -8 117 -10 46 -7 57 6 60 70 2 46 -1 58 -14 62 -29 7 -393 8
-397 1z"/>
<path d="M3895 1980 c-11 -5 -31 -9 -43 -9 -13 -1 -35 -10 -49 -21 -33 -25
-49 -25 -56 0 -5 19 -12 21 -67 18 l-61 -3 0 -370 0 -370 72 -3 71 -3 -5 33
c-3 18 -9 68 -13 111 -6 71 -5 77 13 77 10 0 30 -8 43 -17 33 -23 130 -43 152
-32 9 5 31 9 48 9 18 0 46 8 63 18 46 26 127 113 127 137 0 12 7 30 15 41 9
12 14 42 14 84 0 42 -5 72 -14 84 -8 11 -15 30 -15 43 0 13 -8 32 -17 42 -70
75 -87 91 -98 91 -7 0 -18 6 -24 14 -6 7 -34 16 -61 20 -28 4 -56 8 -63 11 -6
2 -21 0 -32 -5z m98 -149 c65 -33 82 -65 82 -149 l0 -73 -47 -45 c-45 -43 -49
-44 -110 -44 -61 0 -66 2 -108 42 l-45 41 0 84 c0 69 3 87 18 97 9 7 17 17 17
22 1 17 65 41 110 43 28 0 61 -7 83 -18z"/>
<path d="M5143 1976 c-23 -6 -48 -17 -55 -24 -6 -6 -18 -12 -25 -12 -29 0
-123 -112 -123 -147 0 -9 -8 -37 -17 -62 -16 -41 -16 -47 0 -91 9 -26 17 -55
17 -64 0 -39 81 -130 140 -158 49 -23 140 -37 168 -27 13 5 35 9 49 9 33 0 79
27 122 72 56 59 61 66 61 88 0 18 -6 20 -67 20 -62 -1 -71 -3 -97 -30 -27 -28
-34 -30 -106 -30 -75 0 -76 0 -119 41 -29 28 -41 48 -39 62 3 22 5 22 231 21
l227 -1 0 62 c0 43 -5 66 -15 75 -8 7 -15 20 -15 29 0 20 -96 131 -114 131 -7
0 -18 6 -24 12 -12 12 -112 37 -142 36 -8 0 -34 -6 -57 -12z m118 -117 c42
-13 112 -74 106 -92 -5 -18 -287 -26 -306 -10 -28 24 82 104 153 112 5 1 26
-4 47 -10z"/>
<path d="M5861 1976 c-19 -7 -52 -29 -73 -50 -37 -37 -38 -40 -38 -111 0 -68
2 -74 33 -106 31 -33 94 -69 120 -69 7 0 28 -14 46 -32 26 -25 31 -37 26 -57
-7 -29 -41 -60 -66 -61 -20 0 -66 49 -71 75 -3 17 -12 20 -58 22 -34 2 -57 -2
-62 -10 -9 -15 0 -57 18 -78 8 -8 14 -20 14 -25 0 -6 15 -24 33 -41 65 -61
190 -59 256 5 79 77 80 187 2 259 -20 18 -43 33 -52 33 -9 0 -22 7 -29 15 -7
8 -22 15 -34 15 -27 0 -66 39 -66 66 0 57 73 74 97 23 11 -22 22 -27 64 -32
64 -8 73 -3 65 36 -10 51 -67 110 -120 125 -55 14 -61 14 -105 -2z"/>
<path d="M6453 1976 c-84 -31 -135 -124 -113 -207 15 -57 33 -76 100 -106 30
-13 62 -28 70 -34 8 -5 23 -12 32 -15 10 -4 20 -21 24 -41 6 -29 3 -39 -19
-59 -14 -13 -34 -24 -44 -24 -28 1 -61 34 -65 66 -3 28 -4 29 -63 29 l-60 0 2
-37 c4 -74 57 -139 123 -152 87 -18 144 -4 198 47 l42 41 0 87 0 88 -44 35
c-23 20 -50 36 -58 36 -9 0 -21 7 -28 15 -7 8 -19 15 -27 15 -20 0 -62 29 -74
52 -14 26 18 67 52 68 25 0 59 -27 59 -47 0 -10 98 -25 113 -16 13 8 7 60 -8
73 -8 7 -15 18 -15 25 0 17 -46 47 -95 62 -47 15 -59 15 -102 -1z"/>
<path d="M2923 1964 c-4 -12 0 -22 15 -32 12 -8 22 -19 22 -24 0 -6 13 -27 28
-47 16 -20 32 -43 36 -51 14 -30 32 -57 49 -74 23 -23 22 -61 -3 -86 -11 -11
-20 -22 -20 -25 0 -3 -5 -11 -10 -18 -30 -35 -80 -107 -80 -114 0 -4 -14 -22
-30 -40 -17 -18 -30 -37 -30 -42 0 -7 29 -11 73 -11 81 0 86 3 122 75 11 22
26 46 32 53 7 7 13 21 13 31 0 48 37 19 80 -63 55 -104 45 -96 113 -97 103 -2
107 0 81 37 -11 15 -23 34 -29 43 -5 9 -22 32 -37 52 -16 20 -28 40 -28 44 0
3 -16 27 -35 52 -19 25 -35 56 -35 68 0 17 69 123 120 182 5 7 10 17 10 22 0
6 11 18 25 27 27 18 33 39 13 46 -22 8 -158 -4 -158 -13 0 -5 -12 -28 -26 -51
-15 -23 -30 -54 -34 -68 -9 -35 -54 -36 -58 0 -2 14 -9 32 -16 40 -7 8 -21 32
-31 53 -18 34 -23 37 -61 37 -23 0 -55 3 -73 6 -24 5 -32 3 -38 -12z"/>
<path d="M4680 1973 c-8 -3 -31 -19 -51 -34 -46 -36 -50 -36 -47 -1 3 27 2 27
-57 30 l-61 3 -2 -286 -1 -285 73 0 74 0 -6 153 c-7 210 -1 241 48 272 22 14
51 25 65 25 25 0 26 1 23 63 -3 54 -6 62 -23 64 -11 1 -27 -1 -35 -4z"/>
<path d="M1073 1503 c-61 -60 -144 -140 -184 -178 -79 -76 -211 -191 -245
-215 -12 -8 -25 -26 -29 -39 -7 -23 -6 -24 31 -17 22 3 65 9 97 13 l58 6 -2
-222 c-1 -122 2 -225 7 -229 5 -4 181 -6 392 -4 l384 2 -2 213 c-1 116 -1 218
-1 225 1 14 57 10 134 -9 78 -20 70 15 -23 91 -36 30 -86 74 -111 99 -100 99
-381 366 -387 369 -4 1 -57 -46 -119 -105z m167 -80 c17 -16 72 -66 121 -113
49 -46 93 -87 97 -90 23 -17 82 -92 82 -104 0 -8 -11 -27 -24 -43 -22 -26 -24
-38 -28 -165 -3 -128 -5 -139 -28 -162 -19 -21 -33 -26 -71 -26 -64 0 -81 21
-47 58 51 54 59 76 59 155 0 97 -17 137 -77 180 -47 34 -49 35 -148 34 -91 0
-104 -2 -132 -24 -59 -44 -81 -90 -88 -180 l-6 -81 49 -57 c29 -33 47 -63 44
-71 -6 -17 -84 -19 -113 -4 -27 14 -40 71 -40 172 0 71 -5 98 -25 144 -14 31
-25 65 -25 76 0 11 19 39 43 62 24 22 73 70 110 105 37 34 67 67 67 72 0 5 15
16 33 25 17 9 42 27 54 40 29 31 55 30 93 -3z m-85 -413 l0 -55 -57 -3 -58 -3
0 61 0 61 58 -3 57 -3 0 -55z m165 6 c0 -31 -5 -58 -12 -63 -7 -6 -35 -7 -63
-4 l-50 6 -3 44 c-5 66 -1 71 68 71 l60 0 0 -54z m-192 -96 l33 0 -3 -47 -3
-48 -54 -3 c-61 -4 -72 6 -64 53 9 53 12 58 36 51 12 -3 37 -6 55 -6z m187
-45 l0 -50 -60 0 -60 0 -3 47 -3 47 48 4 c79 6 78 7 78 -48z"/>
<path d="M4132 1115 l5 -135 -64 0 -63 0 0 -71 0 -72 60 7 c46 5 60 4 61 -6 0
-7 1 -161 2 -343 l2 -330 73 -3 72 -3 0 344 c0 189 2 346 6 349 3 3 24 0 47
-7 62 -18 67 -13 67 67 l0 69 -55 -2 c-30 -1 -58 0 -61 4 -4 4 -6 65 -5 137
l2 130 -77 0 -77 0 5 -135z"/>
<path d="M5920 1243 c0 -4 -2 -248 -3 -541 -2 -531 -2 -533 19 -538 11 -3 42
-4 68 -2 l48 3 0 540 0 540 -66 3 c-36 2 -66 -1 -66 -5z"/>
<path d="M2514 995 c-10 -8 -29 -15 -40 -15 -12 0 -24 -7 -28 -15 -3 -8 -14
-15 -25 -15 -32 0 -144 -120 -180 -193 -32 -66 -33 -68 -29 -194 4 -128 7
-142 53 -222 36 -64 169 -171 212 -171 6 0 16 -7 23 -15 18 -22 222 -22 240 0
7 8 23 15 35 15 12 0 28 7 35 15 7 8 18 15 25 15 16 0 113 90 130 121 54 98
77 177 77 261 -1 54 -18 143 -33 168 -5 8 -12 22 -16 30 -24 54 -139 170 -168
170 -7 0 -18 7 -25 15 -7 8 -22 15 -34 15 -11 0 -30 7 -40 15 -14 11 -46 15
-106 15 -60 0 -92 -4 -106 -15z m181 -144 c3 -5 20 -13 38 -17 51 -11 137
-108 137 -156 1 -13 7 -34 15 -48 19 -33 19 -78 0 -114 -8 -15 -15 -38 -15
-51 0 -23 -42 -86 -77 -118 -11 -10 -38 -27 -59 -37 -54 -28 -170 -28 -225 0
-49 25 -119 96 -119 120 0 10 -7 23 -15 30 -21 17 -21 196 0 224 8 11 15 26
15 33 0 18 95 113 113 113 7 0 22 7 33 15 21 16 149 21 159 6z"/>
<path d="M4787 991 c-21 -10 -58 -37 -84 -59 -54 -49 -68 -53 -58 -14 15 56
15 57 -57 60 l-68 3 0 -411 0 -411 73 3 72 3 3 281 c2 235 5 284 17 294 8 7
15 18 15 25 0 25 67 65 109 65 l41 0 0 90 c0 99 0 100 -63 71z"/>
<path d="M5244 995 c-10 -8 -29 -15 -40 -15 -12 0 -27 -7 -34 -15 -7 -8 -18
-15 -24 -15 -29 0 -145 -128 -190 -208 -26 -47 -27 -303 -2 -331 9 -10 16 -23
16 -30 0 -19 86 -127 123 -153 44 -32 94 -58 111 -58 7 0 19 -7 26 -15 17 -21
200 -21 238 -1 15 8 47 24 72 35 57 26 138 104 168 162 12 24 27 51 31 59 21
37 33 171 21 243 -14 82 -14 82 -40 122 -11 17 -24 39 -29 51 -15 32 -107 110
-159 134 -26 11 -60 28 -75 35 -39 20 -186 20 -213 0z m190 -150 c11 -8 27
-15 35 -15 23 -1 94 -70 112 -110 51 -109 51 -180 1 -290 -22 -47 -77 -101
-125 -122 -52 -24 -166 -24 -210 -2 -58 30 -96 65 -128 118 -30 48 -32 57 -32
146 1 77 5 102 22 135 26 49 100 125 121 125 9 0 25 7 36 15 12 9 42 14 84 14
42 0 72 -5 84 -14z"/>
<path d="M6390 995 c-7 -8 -18 -15 -25 -15 -20 0 -89 -72 -113 -118 -42 -81
-24 -181 45 -255 29 -30 122 -77 154 -77 10 0 21 -4 24 -10 3 -5 22 -17 42
-27 25 -12 41 -29 55 -59 17 -39 17 -47 5 -76 -23 -55 -52 -73 -113 -72 -45 0
-59 5 -83 28 -18 17 -31 42 -35 66 -3 21 -11 42 -17 46 -6 3 -37 8 -70 10
l-59 4 0 -50 c0 -27 4 -51 9 -55 5 -3 12 -19 16 -36 7 -32 90 -129 110 -129 7
0 18 -7 25 -15 18 -21 182 -21 200 0 7 8 18 15 24 15 14 0 96 72 96 84 0 5 8
18 17 28 13 15 17 39 17 116 0 87 -3 101 -26 138 -14 22 -39 49 -54 59 -41 27
-96 55 -109 55 -15 0 -74 31 -113 59 -28 20 -32 28 -32 68 0 37 5 51 27 70 22
21 33 24 70 20 46 -5 72 -27 83 -72 5 -17 17 -21 70 -26 36 -3 68 -4 73 -2 12
7 7 67 -8 87 -8 11 -15 27 -15 36 0 21 -57 75 -105 100 -49 25 -166 28 -185 5z"/>
<path d="M3488 986 c-26 -6 -53 -17 -60 -23 -6 -7 -17 -13 -23 -13 -6 0 -24
-15 -40 -34 -16 -19 -33 -33 -37 -30 -4 3 -8 25 -8 50 l0 45 -67 -3 c-62 -3
-68 -5 -65 -23 7 -45 9 -500 3 -630 -4 -79 -3 -145 2 -153 12 -16 118 -16 139
1 13 10 14 28 6 127 -14 180 0 376 33 446 26 55 54 78 118 99 51 17 56 17 112
0 61 -19 87 -42 123 -113 15 -28 17 -67 16 -290 -1 -141 -1 -263 0 -269 0 -9
22 -13 75 -13 53 0 75 4 75 13 1 6 0 138 0 291 -1 227 -4 283 -15 300 -8 11
-15 30 -15 42 0 12 -7 27 -15 34 -8 7 -15 18 -15 24 0 16 -75 86 -91 86 -7 0
-20 6 -28 14 -14 11 -144 38 -168 35 -4 -1 -29 -6 -55 -13z"/>
</g>
</svg>
