<?xml version="1.0" standalone="no"?>
<!DOCTYPE svg PUBLIC "-//W3C//DTD SVG 20010904//EN"
 "http://www.w3.org/TR/2001/REC-SVG-20010904/DTD/svg10.dtd">
<svg version="1.0" xmlns="http://www.w3.org/2000/svg"
 width="200.000000pt" height="248.000000pt" viewBox="0 0 200.000000 248.000000"
 preserveAspectRatio="xMidYMid meet">
<metadata>
Created by potrace 1.10, written by Peter Selinger 2001-2011
</metadata>
<g transform="translate(0.000000,248.000000) scale(0.050000,-0.050000)"
fill="#2d1678" stroke="none">
<path d="M2970 4898 c-22 -9 -449 -11 -950 -4 -846 12 -908 10 -883 -21 16
-18 19 -33 8 -33 -12 0 -26 14 -33 31 -9 24 -20 26 -50 10 -25 -14 -167 -16
-418 -6 -640 25 -594 68 -594 -561 0 -543 -1 -532 52 -528 44 3 49 37 14 93
-19 30 -19 49 1 85 28 53 23 671 -6 754 -12 33 -11 44 4 35 12 -7 46 -4 76 8
35 13 523 25 1317 33 694 7 1463 17 1709 21 483 9 512 6 582 -54 55 -48 61
-178 12 -272 -17 -33 -31 -70 -31 -84 0 -31 -207 -245 -237 -245 -13 0 -23 -8
-23 -17 0 -9 -36 -34 -80 -55 -44 -21 -80 -44 -80 -50 0 -7 -28 -19 -61 -25
-34 -7 -56 -22 -49 -33 12 -19 -13 -28 -62 -22 -41 5 -78 -57 -50 -84 20 -19
33 -14 63 23 22 26 39 37 39 25 0 -12 63 9 140 48 77 39 140 65 140 57 0 -7
27 15 60 50 33 34 60 53 60 40 0 -12 18 -17 40 -11 32 8 40 0 40 -38 0 -26 -9
-48 -20 -48 -11 0 -20 -8 -20 -18 0 -10 19 -13 41 -7 48 12 38 -206 -13 -285
-26 -40 -11 -95 24 -89 69 13 69 8 58 -546 -6 -300 -15 -846 -20 -1215 l-9
-670 -44 5 c-25 3 -38 0 -31 -8 18 -17 -66 -89 -88 -76 -10 6 -12 -3 -6 -19 6
-17 29 -36 50 -43 26 -8 38 -30 38 -72 0 -34 8 -54 20 -47 11 7 20 -1 20 -17
0 -16 -11 -34 -25 -40 -19 -7 -18 -15 5 -31 22 -17 24 -26 6 -37 -13 -9 -27
-65 -32 -125 -4 -61 -14 -125 -23 -144 -9 -22 0 -49 26 -78 63 -67 87 -151 52
-186 -16 -16 -29 -38 -29 -48 0 -24 -222 -42 -670 -54 -198 -5 -558 -16 -800
-25 -242 -8 -453 -12 -470 -10 -16 3 -174 -4 -350 -14 -760 -46 -977 -47
-1026 -1 -24 23 -55 36 -67 28 -14 -8 -18 -5 -10 7 7 11 -10 35 -37 53 -27 18
-63 62 -79 97 -17 36 -42 81 -56 101 -21 29 -20 38 5 54 19 13 21 19 5 20 -18
0 -22 49 -16 195 10 213 -4 370 -32 353 -9 -6 -18 1 -19 16 -2 48 -15 100 -26
111 -38 38 -10 -766 28 -844 103 -208 284 -275 699 -261 609 20 1700 49 2289
61 654 13 725 24 772 125 24 52 30 415 64 3848 l6 653 -69 72 c-40 41 -94 74
-130 80 -121 18 -702 26 -741 9z"/>
<path d="M550 4641 c-13 -22 65 -120 96 -121 9 0 46 -29 81 -65 120 -121 254
-201 583 -346 289 -127 740 -202 1117 -185 272 12 359 55 103 51 -99 -2 -220
3 -270 11 -49 8 -141 18 -204 23 -62 4 -132 18 -154 30 -23 12 -84 25 -137 29
-122 10 -120 9 -85 34 24 17 21 20 -15 12 -29 -7 -45 -1 -45 16 0 32 -65 26
-75 -6 -5 -15 -22 -10 -47 14 -25 22 -58 33 -89 27 -36 -7 -49 -1 -49 23 0 22
-18 32 -59 32 -32 0 -64 9 -71 20 -7 11 -30 20 -52 20 -26 0 -38 11 -34 33 3
18 -5 37 -19 42 -16 5 -21 -3 -13 -24 9 -23 4 -28 -20 -19 -17 7 -27 20 -21
30 6 10 -16 18 -49 18 -36 0 -68 14 -80 35 -12 19 -21 29 -21 21 -1 -8 -30 12
-66 45 -36 33 -79 73 -95 88 -17 15 -54 34 -84 41 -29 8 -58 26 -64 42 -12 32
19 39 35 8 5 -12 8 -10 5 5 -7 32 -84 44 -102 16z"/>
<path d="M160 4220 c0 -169 6 -301 13 -294 15 15 12 576 -3 591 -6 5 -10 -128
-10 -297z"/>
<path d="M164 3745 l4 -135 7 115 c4 63 16 115 27 115 11 0 15 9 8 20 -32 52
-50 8 -46 -115z"/>
<path d="M59 3724 c-21 -569 -12 -2502 12 -2447 16 37 23 77 16 88 -7 12 -4
15 8 8 25 -15 45 75 24 109 -8 13 -5 35 8 49 18 20 26 18 37 -8 9 -24 14 -18
15 20 0 30 -10 57 -23 62 -16 5 -26 124 -32 401 -5 217 -17 394 -27 394 -9 0
-17 72 -17 160 0 115 7 160 25 160 19 0 23 88 17 395 -6 261 -14 368 -24 315
-9 -50 -11 -21 -5 80 6 88 19 163 29 167 34 12 18 54 -22 58 -22 1 -40 -4 -41
-11z"/>
<path d="M3740 3570 c0 -20 -6 -31 -13 -24 -7 8 -24 5 -37 -6 -207 -172 -2930
-180 -2930 -9 0 16 -9 29 -20 29 -12 0 -21 -418 -25 -1167 l-5 -1166 210 -23
c833 -93 2175 -63 2627 58 122 32 124 36 116 231 -8 178 -36 188 -44 17 l-4
-80 -16 100 c-25 162 -22 1507 4 1463 11 -20 17 -58 12 -83 -5 -26 -3 -58 5
-70 19 -31 41 284 27 388 -9 68 -5 89 21 98 17 7 32 26 32 43 0 16 14 71 31
122 18 51 27 98 20 104 -6 7 -11 -5 -11 -25z m-113 -323 c8 -95 9 -178 3 -183
-5 -6 -11 25 -13 68 l-3 78 -14 -90 c-11 -71 -15 -49 -17 105 -4 241 26 256
44 22z m-2547 112 c257 -33 530 -43 1110 -41 579 2 632 4 950 40 259 28 341
15 330 -55 -18 -106 -34 -315 -31 -395 1 -45 -6 -104 -16 -131 -11 -27 -12
-87 -4 -133 9 -46 8 -84 -2 -84 -28 0 -19 -53 13 -80 50 -41 38 -83 -20 -68
-31 8 -50 4 -50 -10 0 -12 17 -22 39 -22 44 0 71 -31 42 -49 -10 -7 -14 -25
-8 -42 8 -20 -2 -29 -31 -29 -23 0 -42 -10 -42 -22 0 -13 16 -18 36 -13 36 9
59 -53 27 -73 -18 -11 -13 -180 6 -210 8 -13 -5 -23 -33 -25 l-46 -2 45 -9
c35 -7 45 -23 47 -72 4 -129 -6 -224 -24 -231 -10 -3 -7 -26 6 -50 12 -23 20
-47 17 -53 -4 -5 12 -19 34 -31 71 -36 -30 -131 -151 -142 -52 -5 -113 -18
-137 -30 -33 -16 -54 -13 -95 13 -48 32 -52 32 -52 1 0 -18 -7 -29 -16 -23 -9
5 -106 1 -215 -9 -333 -30 -580 -41 -556 -25 13 9 -98 18 -245 19 -187 3 -264
-3 -255 -18 13 -22 -80 -13 -163 15 -32 11 -34 10 -10 -8 48 -35 -30 -28 -101
9 -37 19 -59 22 -59 8 0 -12 -8 -16 -19 -10 -10 6 -24 2 -32 -10 -8 -14 -21
-11 -36 9 -27 36 -127 57 -144 31 -25 -41 -301 -3 -331 45 -7 11 -10 80 -6
153 3 73 5 228 4 343 -8 710 -1 880 34 880 32 0 26 65 -7 76 -25 8 -34 546
-10 571 17 16 24 16 207 -8z"/>
<path d="M1980 2646 c0 -12 -16 -27 -35 -34 -72 -26 -136 -71 -101 -72 18 0
47 14 64 31 18 17 41 26 52 19 23 -14 52 45 32 64 -6 7 -12 3 -12 -8z"/>
<path d="M2196 2609 c-101 -55 -128 -173 -54 -236 46 -40 135 -55 137 -23 0
11 -20 20 -44 20 -87 0 -114 146 -37 204 39 30 102 34 102 6 0 -11 18 -20 40
-20 22 0 40 -9 40 -20 0 -11 19 -1 41 21 97 97 226 -15 158 -137 -39 -69 -110
-80 -158 -25 -32 36 -38 38 -49 10 -34 -89 153 -120 226 -37 93 107 13 282
-118 259 -100 -19 -165 -20 -200 -5 -16 7 -55 -1 -84 -17z"/>
<path d="M1926 2521 c-51 -31 -65 -54 -70 -115 -5 -61 -13 -75 -43 -70 -20 4
-32 -2 -25 -12 6 -11 32 -19 57 -19 25 -1 54 -3 65 -5 60 -14 76 2 34 31 -70
50 -58 125 26 160 39 16 70 38 70 49 0 31 -44 24 -114 -19z"/>
<path d="M2813 2430 c1 -39 -5 -75 -15 -81 -29 -18 -21 -49 13 -49 16 0 38 20
48 45 14 34 19 37 20 10 0 -19 9 -35 20 -35 10 0 -1 40 -25 90 -53 108 -66
112 -61 20z"/>
<path d="M1403 2446 c-29 -55 -30 -126 -1 -126 13 0 19 21 13 49 -5 27 0 53
11 56 11 4 16 20 10 36 -7 22 -15 18 -33 -15z"/>
<path d="M1628 2430 c-33 -51 -26 -110 14 -110 12 0 17 14 11 30 -7 17 -3 53
7 80 24 64 10 64 -32 0z"/>
<path d="M2560 2260 c0 -11 9 -20 20 -20 11 0 20 -36 20 -80 0 -44 9 -80 20
-80 39 0 22 149 -20 175 -24 15 -40 17 -40 5z"/>
<path d="M2107 2203 c-25 -67 23 -202 73 -205 16 0 45 -4 63 -8 53 -10 126 49
96 77 -18 17 -26 17 -33 -2 -12 -33 -87 -31 -133 5 -42 31 -33 158 13 177 13
5 6 11 -17 11 -27 1 -47 -17 -62 -55z"/>
<path d="M3202 2145 c-2 -65 6 -85 29 -85 19 0 26 9 17 23 -8 13 -21 51 -29
85 -14 59 -15 57 -17 -23z"/>
<path d="M1421 2147 c-49 -63 -54 -127 -9 -127 21 0 28 11 20 31 -18 48 24
109 74 108 71 -1 114 -45 103 -106 -8 -44 -2 -53 33 -53 38 0 41 8 30 64 -27
135 -172 184 -251 83z"/>
<path d="M2032 2153 c-6 -28 -7 -64 0 -81 7 -18 5 -32 -5 -31 -27 1 -79 46
-92 79 -7 17 -13 1 -13 -35 -2 -63 1 -65 78 -65 l80 0 -13 85 c-16 105 -19
109 -35 48z"/>
<path d="M3027 2065 c1 -47 9 -85 15 -85 7 0 12 -51 10 -114 -2 -112 -3 -115
-67 -128 -35 -7 -59 -5 -53 5 6 9 -4 17 -22 17 -18 0 -27 -8 -21 -19 6 -10 3
-24 -8 -30 -11 -7 -26 10 -33 39 -37 149 -195 137 -278 -22 -27 -53 -30 -54
-30 -13 0 25 -9 45 -20 45 -11 0 -20 -17 -20 -37 0 -28 -13 -36 -50 -32 -27 3
-50 -3 -50 -13 0 -23 7 -23 260 -20 116 2 260 15 320 28 l110 25 6 138 c4 88
-2 143 -17 152 -13 7 -30 44 -39 81 -17 67 -17 67 -13 -17z m-231 -278 c37
-65 5 -107 -79 -107 -93 0 -121 43 -65 100 47 47 120 51 144 7z"/>
<path d="M2384 2050 c18 -40 37 -50 95 -50 87 0 163 44 120 70 -16 11 -30 8
-34 -6 -12 -34 -95 -30 -125 6 -43 52 -83 38 -56 -20z"/>
<path d="M1570 1799 c-8 -67 -9 -126 -3 -133 21 -21 393 -27 393 -6 0 11 -13
20 -29 20 -16 0 -27 17 -26 40 2 22 18 40 36 40 18 0 39 6 46 14 30 29 93 19
93 -16 0 -19 11 -40 25 -46 20 -10 20 -14 0 -24 -14 -6 -20 -20 -14 -30 15
-24 263 -23 278 1 16 26 -54 44 -125 32 -50 -9 -62 -3 -72 37 -34 137 -330
114 -333 -26 0 -26 -6 -25 -30 7 -25 34 -29 34 -29 5 0 -25 -18 -34 -70 -34
-57 0 -70 8 -70 40 0 22 -11 58 -25 80 -20 32 -20 48 0 80 21 33 20 40 -3 40
-19 0 -32 -37 -42 -121z"/>
<path d="M2240 1819 c0 -11 14 -19 30 -19 17 0 30 -9 30 -20 0 -11 18 -20 40
-20 38 0 38 2 5 36 -38 38 -105 53 -105 23z"/>
<path d="M1194 1780 c-60 -71 -19 -240 58 -240 16 0 28 -10 28 -21 0 -27 79
-5 119 33 40 38 9 61 -34 25 -36 -31 -105 -28 -105 4 0 11 -13 19 -30 19 -53
0 -40 153 15 167 44 12 135 -32 135 -65 0 -10 14 -23 30 -29 19 -8 30 0 30 21
0 18 -6 27 -13 19 -8 -7 -30 14 -50 47 -44 72 -130 81 -183 20z"/>
<path d="M3235 1628 c-7 -7 5 -31 26 -53 20 -23 34 -48 29 -56 -5 -8 13 -19
40 -24 58 -11 64 1 17 35 -33 24 -20 80 14 59 10 -6 13 4 5 24 -8 21 -16 26
-21 11 -10 -29 -65 -32 -65 -4 0 22 -27 27 -45 8z"/>
<path d="M3619 2592 c0 -12 -3 -89 -6 -172 -3 -82 1 -231 8 -330 l13 -180 3
165 c2 95 12 165 23 165 12 0 20 76 20 187 0 152 -5 186 -30 186 -16 0 -30 -9
-31 -21z"/>
<path d="M145 1230 c6 -161 42 -189 51 -40 4 67 -4 113 -25 140 -29 37 -31 30
-26 -100z"/>
<path d="M2520 612 c0 -35 79 -50 218 -41 73 4 100 0 81 -12 -19 -12 21 -15
111 -9 77 5 167 10 200 12 95 5 -221 55 -425 67 -149 8 -185 5 -185 -17z"/>
<path d="M1830 589 c-497 -66 -857 -169 -1198 -343 -127 -64 -162 -98 -120
-114 16 -6 25 -4 19 6 -6 10 22 24 62 31 39 8 87 22 104 33 55 31 483 158 535
158 26 0 48 8 48 18 0 10 38 23 85 29 47 6 115 17 152 24 47 10 72 6 84 -13
13 -21 26 -16 58 21 22 26 41 40 41 32 0 -9 14 -5 30 9 25 21 30 19 30 -11 0
-33 2 -33 37 -2 20 18 46 33 58 33 47 0 243 86 233 103 -12 20 -1 20 -258 -14z"/>
<path d="M2210 553 c-188 -89 -238 -251 -73 -238 94 8 370 165 289 165 -10 0
-19 14 -19 31 0 21 6 24 20 10 34 -34 53 -24 53 29 0 68 -129 69 -270 3z"/>
</g>
</svg>
